<?xml version="1.0" encoding="utf-8"?>
<svg xmlns="http://www.w3.org/2000/svg"
	xmlns:xlink="http://www.w3.org/1999/xlink"
	width="50px" height="50px">
<path fill="rgb(255,255,255)" fill-rule="evenodd" d="M 25 50C 11.19 50 0 38.81 0 25 0 11.19 11.19-0 25-0 38.81-0 50 11.19 50 25 50 38.81 38.81 50 25 50ZM 25 2C 12.3 2 2 12.3 2 25 2 37.7 12.3 48 25 48 37.7 48 48 37.7 48 25 48 12.3 37.7 2 25 2ZM 23.76 32.9C 23.76 32.9 25.17 31.49 25.17 31.49 25.17 31.49 25.17 31.49 25.17 31.49 25.17 31.49 37.9 18.76 37.9 18.76 37.9 18.76 39.31 20.17 39.31 20.17 39.31 20.17 25.17 34.31 25.17 34.31 25.17 34.31 23.76 32.9 23.76 32.9ZM 10.69 19.83C 10.69 19.83 12.1 18.41 12.1 18.41 12.1 18.41 25.17 31.49 25.17 31.49 25.17 31.49 23.76 32.9 23.76 32.9 23.76 32.9 10.69 19.83 10.69 19.83Z"/>
</svg>