<?xml version="1.0" encoding="utf-8"?>
<!-- Generator: Adobe Illustrator 16.0.0, SVG Export Plug-In . SVG Version: 6.00 Build 0)  -->
<!DOCTYPE svg PUBLIC "-//W3C//DTD SVG 1.1//EN" "http://www.w3.org/Graphics/SVG/1.1/DTD/svg11.dtd">
<svg version="1.1" id="Warstwa_1" xmlns="http://www.w3.org/2000/svg" xmlns:xlink="http://www.w3.org/1999/xlink" x="0px" y="0px"
	 width="255.121px" height="141.73px" viewBox="0 0 255.121 141.73" enable-background="new 0 0 255.121 141.73"
	 xml:space="preserve">
<g>
	<path fill="#FFFFFF" d="M107.949,74.365h-2.756v4.457h-2.438V64.95h5.471c3.229,0,5.272,1.822,5.272,4.657
		C113.498,72.738,111,74.365,107.949,74.365z M108.027,67.168h-2.834v4.995h2.834c1.844,0,2.993-1.011,2.993-2.497
		C111.02,68.021,109.851,67.168,108.027,67.168z"/>
	<path fill="#FFFFFF" d="M127.882,78.822h-2.581l-1.404-3.348h-6.56l-1.427,3.348h-2.498l6.104-13.973h2.26L127.882,78.822z
		 M120.607,67.764l-2.377,5.55h4.775L120.607,67.764z"/>
	<path fill="#FFFFFF" d="M135.981,79.062c-4.341,0-7.196-3.094-7.196-7.155c0-3.905,2.974-7.196,7.158-7.196
		c2.414,0,3.9,0.675,5.33,1.883l-1.548,1.843c-1.068-0.911-2.118-1.484-3.884-1.484c-2.558,0-4.497,2.219-4.497,4.915
		c0,2.871,1.883,4.973,4.716,4.973c1.308,0,2.496-0.416,3.347-1.051v-2.596h-3.543v-2.12h5.905V76.9
		C140.4,78.069,138.439,79.062,135.981,79.062z"/>
	<path fill="#FFFFFF" d="M155.218,67.129h-7.851v3.606h6.958v2.18h-6.958v3.729h7.95v2.178h-10.387V64.95h10.287V67.129z"/>
	<path fill="#FFFFFF" d="M163.398,74.365h-2.758v4.457h-2.436V64.95h5.469c3.229,0,5.27,1.822,5.27,4.657
		C168.943,72.738,166.445,74.365,163.398,74.365z M163.478,67.168h-2.837v4.995h2.837c1.841,0,2.99-1.011,2.99-2.497
		C166.468,68.021,165.3,67.168,163.478,67.168z"/>
	<path fill="#FFFFFF" d="M180.338,78.822l-3.409-4.834h-3.055v4.834h-2.437V64.95h6.187c3.187,0,5.151,1.684,5.151,4.4
		c0,2.299-1.369,3.685-3.309,4.221l3.744,5.251H180.338z M177.423,67.168h-3.549v4.66h3.57c1.743,0,2.854-0.914,2.854-2.339
		C180.299,67.961,179.228,67.168,177.423,67.168z"/>
	<path fill="#FFFFFF" d="M192.382,79.062c-4.262,0-7.234-3.231-7.234-7.155c0-3.925,3.012-7.196,7.272-7.196
		c4.26,0,7.233,3.232,7.233,7.157C199.653,75.789,196.64,79.062,192.382,79.062z M192.382,66.953c-2.758,0-4.68,2.199-4.68,4.915
		c0,2.714,1.964,4.956,4.718,4.956c2.756,0,4.676-2.204,4.676-4.917C197.096,69.191,195.137,66.953,192.382,66.953z"/>
</g>
<path fill-rule="evenodd" clip-rule="evenodd" fill="#FFFFFF" d="M89.501,56.614c-0.444-8.208-7.238-14.728-15.556-14.728H52.231
	v1.59v0.747v39.75v2.332v0.003h10.958v-2.335h-8.622v-39.75h19.378v-0.02c7.325,0,13.261,5.938,13.261,13.262
	c0,7.326-5.937,13.265-13.261,13.265h-8.427v31.157h8.427c8.11,0,14.769-6.197,15.508-14.114h0.071V56.614H89.501z"/>
</svg>
